<svg xmlns="http://www.w3.org/2000/svg" width="121" height="48" fill="none"><path fill="url(#a)" d="M34.196 39V9.91h18.04v3.777h-13.65v8.864h12.357v3.764H38.585V39h-4.389Zm27.768.483c-1.383 0-2.633-.256-3.75-.767-1.117-.52-2.003-1.274-2.656-2.259-.644-.985-.966-2.192-.966-3.622 0-1.23.236-2.244.71-3.04a5.242 5.242 0 0 1 1.918-1.889 10.016 10.016 0 0 1 2.699-1.05 26.838 26.838 0 0 1 3.04-.54l3.181-.37c.814-.104 1.406-.27 1.776-.497.369-.227.554-.597.554-1.108v-.1c0-1.24-.35-2.201-1.052-2.883-.69-.682-1.723-1.023-3.096-1.023-1.43 0-2.557.317-3.38.952-.815.625-1.379 1.321-1.691 2.088l-3.992-.91c.474-1.325 1.165-2.395 2.074-3.21a8.411 8.411 0 0 1 3.168-1.79 12.365 12.365 0 0 1 3.764-.567 13.3 13.3 0 0 1 2.77.312 8.107 8.107 0 0 1 2.756 1.108c.861.54 1.567 1.312 2.116 2.316.55.994.824 2.287.824 3.877V39h-4.148v-2.983h-.17c-.275.55-.687 1.09-1.236 1.62-.55.53-1.255.97-2.117 1.32-.861.35-1.893.526-3.096.526Zm.923-3.41c1.174 0 2.178-.231 3.012-.695.842-.464 1.482-1.07 1.917-1.818a4.716 4.716 0 0 0 .668-2.43v-2.812c-.152.152-.445.294-.88.426-.427.123-.915.232-1.464.327-.55.085-1.084.166-1.605.241-.52.067-.956.124-1.307.171-.824.104-1.577.28-2.258.526-.673.246-1.212.6-1.62 1.065-.397.454-.596 1.06-.596 1.818 0 1.051.388 1.847 1.165 2.386.776.53 1.766.796 2.968.796Zm22.069 3.353c-1.762 0-3.334-.45-4.716-1.35-1.373-.908-2.453-2.201-3.239-3.877-.776-1.686-1.165-3.707-1.165-6.065 0-2.358.393-4.375 1.18-6.052.795-1.676 1.884-2.959 3.266-3.849 1.383-.89 2.95-1.335 4.702-1.335 1.354 0 2.443.227 3.267.681.833.446 1.477.966 1.932 1.563.464.597.824 1.122 1.08 1.577h.255V9.909h4.247V39h-4.147v-3.395h-.356c-.255.464-.625.994-1.108 1.591-.473.597-1.126 1.117-1.96 1.563-.833.445-1.913.667-3.239.667Zm.937-3.622c1.222 0 2.254-.322 3.097-.966.852-.653 1.496-1.558 1.931-2.713.445-1.155.668-2.5.668-4.034 0-1.515-.218-2.841-.653-3.977-.436-1.137-1.075-2.022-1.918-2.657-.843-.634-1.884-.951-3.125-.951-1.278 0-2.344.331-3.196.994-.852.663-1.496 1.567-1.932 2.713-.426 1.146-.639 2.438-.639 3.878 0 1.458.218 2.77.653 3.935.436 1.164 1.08 2.088 1.932 2.77.862.672 1.923 1.008 3.182 1.008Zm23.737 3.636c-2.149 0-4.001-.459-5.554-1.377-1.543-.928-2.736-2.23-3.579-3.907-.834-1.685-1.25-3.66-1.25-5.923 0-2.235.416-4.205 1.25-5.91.843-1.704 2.017-3.034 3.523-3.99 1.515-.957 3.286-1.435 5.312-1.435 1.231 0 2.424.203 3.58.61a8.665 8.665 0 0 1 3.11 1.918c.919.871 1.643 2.003 2.174 3.395.53 1.383.795 3.063.795 5.043v1.505h-17.344v-3.181h13.182c0-1.118-.227-2.107-.682-2.97a5.149 5.149 0 0 0-1.917-2.059c-.815-.502-1.771-.753-2.869-.753-1.194 0-2.235.294-3.125.88a5.91 5.91 0 0 0-2.046 2.274 6.566 6.566 0 0 0-.71 3.025v2.486c0 1.458.256 2.699.767 3.722.521 1.022 1.245 1.804 2.173 2.343.928.53 2.012.796 3.253.796.805 0 1.539-.114 2.202-.341a4.742 4.742 0 0 0 1.718-1.051 4.558 4.558 0 0 0 1.108-1.719l4.02.724a7.272 7.272 0 0 1-1.733 3.111c-.824.88-1.86 1.568-3.11 2.06-1.241.483-2.657.724-4.248.724Z"/><path fill="url(#b)" d="M0 12.778v26c0 1.589 1.3 2.889 2.889 2.889h17.333v-2.89H2.89v-26H0ZM23.111 7H8.667a2.897 2.897 0 0 0-2.89 2.889V33c0 1.589 1.3 2.889 2.89 2.889H23.11c1.59 0 2.89-1.3 2.89-2.889V9.889C26 8.3 24.7 7 23.111 7ZM18.49 25.778c-.578 0-1.156-.145-1.733-.434l1.3 3.323h-4.334l1.3-3.323c-.578.29-1.155.434-1.733.434-1.733 0-3.178-1.445-3.178-3.178 0-2.167 2.022-3.9 4.911-6.644l.867-.723.867.723c2.888 2.744 4.91 4.477 4.91 6.644 0 1.878-1.444 3.178-3.177 3.178Z"/><defs><linearGradient id="a" x1="78.75" x2="78.75" y1="48" y2="24" gradientUnits="userSpaceOnUse"><stop/><stop offset="1" stop-color="#C3C1C1"/></linearGradient><linearGradient id="b" x1="11.917" x2="11.917" y1="47" y2="18.5" gradientUnits="userSpaceOnUse"><stop/><stop offset="1" stop-color="#C4C1C1"/></linearGradient></defs></svg>